<svg width="50" height="50" viewBox="0 0 50 50" fill="none" xmlns="http://www.w3.org/2000/svg">
<rect width="50" height="50" fill="white"/>
<path d="M45.8334 23.0834V25C45.8309 29.4926 44.3761 33.8639 41.6862 37.4622C38.9963 41.0604 35.2153 43.6927 30.9071 44.9665C26.5989 46.2403 21.9944 46.0873 17.7802 44.5304C13.5661 42.9735 9.96811 40.0961 7.52292 36.3273C5.07772 32.5584 3.91631 28.1002 4.21191 23.6174C4.5075 19.1346 6.24426 14.8674 9.16316 11.4523C12.0821 8.03717 16.0267 5.65709 20.4088 4.66701C24.7909 3.67694 29.3756 4.12991 33.4793 5.95838" stroke="#F5C001" stroke-width="4" stroke-linecap="round" stroke-linejoin="round"/>
<path d="M45.8333 8.33337L25 29.1875L18.75 22.9375" stroke="#333333" stroke-width="4" stroke-linecap="round" stroke-linejoin="round"/>
</svg>
